M48
; DRILL file {KiCad 8.0.5} date 2024-10-23T08:19:47+0200
; FORMAT={-:-/ absolute / inch / decimal}
; #@! TF.CreationDate,2024-10-23T08:19:47+02:00
; #@! TF.GenerationSoftware,Kicad,Pcbnew,8.0.5
; #@! TF.FileFunction,NonPlated,1,2,NPTH
FMAT,2
INCH
; #@! TA.AperFunction,NonPlated,NPTH,ComponentDrill
T1C0.0394
%
G90
G05
T1
X2.6339Y-1.0276
X2.6339Y-1.3346
X2.6339Y-1.4213
X2.6339Y-1.7283
X2.6339Y-1.815
X2.6339Y-2.122
X2.6339Y-2.2087
X2.6339Y-2.5157
X2.6339Y-2.6024
X2.6339Y-2.9094
X2.6339Y-2.9961
X2.6339Y-3.3031
X2.6339Y-3.3898
X2.6339Y-3.6969
X2.6339Y-3.7835
X2.6339Y-4.0906
X2.878Y-1.0276
X2.878Y-1.3346
X2.878Y-1.4213
X2.878Y-1.7283
X2.878Y-1.815
X2.878Y-2.122
X2.878Y-2.2087
X2.878Y-2.5157
X2.878Y-2.6024
X2.878Y-2.9094
X2.878Y-2.9961
X2.878Y-3.3031
X2.878Y-3.3898
X2.878Y-3.6969
X2.878Y-3.7835
X2.878Y-4.0906
X3.1063Y-1.0276
X3.1063Y-1.3346
X3.1063Y-1.4213
X3.1063Y-1.7283
X3.1063Y-1.815
X3.1063Y-2.122
X3.1063Y-2.2087
X3.1063Y-2.5157
X3.1063Y-2.6024
X3.1063Y-2.9094
X3.1063Y-2.9961
X3.1063Y-3.3031
X3.1063Y-3.3898
X3.1063Y-3.6969
X3.1063Y-3.7835
X3.1063Y-4.0906
X3.3504Y-1.0276
X3.3504Y-1.3346
X3.3504Y-1.4213
X3.3504Y-1.7283
X3.3504Y-1.815
X3.3504Y-2.122
X3.3504Y-2.2087
X3.3504Y-2.5157
X3.3504Y-2.6024
X3.3504Y-2.9094
X3.3504Y-2.9961
X3.3504Y-3.3031
X3.3504Y-3.3898
X3.3504Y-3.6969
X3.3504Y-3.7835
X3.3504Y-4.0906
X3.5787Y-1.0276
X3.5787Y-1.3346
X3.5787Y-1.4213
X3.5787Y-1.7283
X3.5787Y-1.815
X3.5787Y-2.122
X3.5787Y-2.2087
X3.5787Y-2.5157
X3.5787Y-2.6024
X3.5787Y-2.9094
X3.5787Y-2.9961
X3.5787Y-3.3031
X3.5787Y-3.3898
X3.5787Y-3.6969
X3.5787Y-3.7835
X3.5787Y-4.0906
X3.8228Y-1.0276
X3.8228Y-1.3346
X3.8228Y-1.4213
X3.8228Y-1.7283
X3.8228Y-1.815
X3.8228Y-2.122
X3.8228Y-2.2087
X3.8228Y-2.5157
X3.8228Y-2.6024
X3.8228Y-2.9094
X3.8228Y-2.9961
X3.8228Y-3.3031
X3.8228Y-3.3898
X3.8228Y-3.6969
X3.8228Y-3.7835
X3.8228Y-4.0906
X4.0512Y-1.0276
X4.0512Y-1.3346
X4.0512Y-1.4213
X4.0512Y-1.7283
X4.0512Y-1.815
X4.0512Y-2.122
X4.0512Y-2.2087
X4.0512Y-2.5157
X4.0512Y-2.6024
X4.0512Y-2.9094
X4.0512Y-2.9961
X4.0512Y-3.3031
X4.0512Y-3.3898
X4.0512Y-3.6969
X4.0512Y-3.7835
X4.0512Y-4.0906
X4.2953Y-1.0276
X4.2953Y-1.3346
X4.2953Y-1.4213
X4.2953Y-1.7283
X4.2953Y-1.815
X4.2953Y-2.122
X4.2953Y-2.2087
X4.2953Y-2.5157
X4.2953Y-2.6024
X4.2953Y-2.9094
X4.2953Y-2.9961
X4.2953Y-3.3031
X4.2953Y-3.3898
X4.2953Y-3.6969
X4.2953Y-3.7835
X4.2953Y-4.0906
X4.5236Y-1.0276
X4.5236Y-1.3346
X4.5236Y-1.4213
X4.5236Y-1.7283
X4.5236Y-1.815
X4.5236Y-2.122
X4.5236Y-2.2087
X4.5236Y-2.5157
X4.5236Y-2.6024
X4.5236Y-2.9094
X4.5236Y-2.9961
X4.5236Y-3.3031
X4.5236Y-3.3898
X4.5236Y-3.6969
X4.5236Y-3.7835
X4.5236Y-4.0906
X4.7677Y-1.0276
X4.7677Y-1.3346
X4.7677Y-1.4213
X4.7677Y-1.7283
X4.7677Y-1.815
X4.7677Y-2.122
X4.7677Y-2.2087
X4.7677Y-2.5157
X4.7677Y-2.6024
X4.7677Y-2.9094
X4.7677Y-2.9961
X4.7677Y-3.3031
X4.7677Y-3.3898
X4.7677Y-3.6969
X4.7677Y-3.7835
X4.7677Y-4.0906
X4.9961Y-1.0276
X4.9961Y-1.3346
X4.9961Y-1.4213
X4.9961Y-1.7283
X4.9961Y-1.815
X4.9961Y-2.122
X4.9961Y-2.2087
X4.9961Y-2.5157
X4.9961Y-2.6024
X4.9961Y-2.9094
X4.9961Y-2.9961
X4.9961Y-3.3031
X4.9961Y-3.3898
X4.9961Y-3.6969
X4.9961Y-3.7835
X4.9961Y-4.0906
X5.2402Y-1.0276
X5.2402Y-1.3346
X5.2402Y-1.4213
X5.2402Y-1.7283
X5.2402Y-1.815
X5.2402Y-2.122
X5.2402Y-2.2087
X5.2402Y-2.5157
X5.2402Y-2.6024
X5.2402Y-2.9094
X5.2402Y-2.9961
X5.2402Y-3.3031
X5.2402Y-3.3898
X5.2402Y-3.6969
X5.2402Y-3.7835
X5.2402Y-4.0906
X5.4685Y-1.0276
X5.4685Y-1.3346
X5.4685Y-1.4213
X5.4685Y-1.7283
X5.4685Y-1.815
X5.4685Y-2.122
X5.4685Y-2.2087
X5.4685Y-2.5157
X5.4685Y-2.6024
X5.4685Y-2.9094
X5.4685Y-2.9961
X5.4685Y-3.3031
X5.4685Y-3.3898
X5.4685Y-3.6969
X5.4685Y-3.7835
X5.4685Y-4.0906
X5.7126Y-1.0276
X5.7126Y-1.3346
X5.7126Y-1.4213
X5.7126Y-1.7283
X5.7126Y-1.815
X5.7126Y-2.122
X5.7126Y-2.2087
X5.7126Y-2.5157
X5.7126Y-2.6024
X5.7126Y-2.9094
X5.7126Y-2.9961
X5.7126Y-3.3031
X5.7126Y-3.3898
X5.7126Y-3.6969
X5.7126Y-3.7835
X5.7126Y-4.0906
X5.9409Y-1.0276
X5.9409Y-1.3346
X5.9409Y-1.4213
X5.9409Y-1.7283
X5.9409Y-1.815
X5.9409Y-2.122
X5.9409Y-2.2087
X5.9409Y-2.5157
X5.9409Y-2.6024
X5.9409Y-2.9094
X5.9409Y-2.9961
X5.9409Y-3.3031
X5.9409Y-3.3898
X5.9409Y-3.6969
X5.9409Y-3.7835
X5.9409Y-4.0906
X6.185Y-1.0276
X6.185Y-1.3346
X6.185Y-1.4213
X6.185Y-1.7283
X6.185Y-1.815
X6.185Y-2.122
X6.185Y-2.2087
X6.185Y-2.5157
X6.185Y-2.6024
X6.185Y-2.9094
X6.185Y-2.9961
X6.185Y-3.3031
X6.185Y-3.3898
X6.185Y-3.6969
X6.185Y-3.7835
X6.185Y-4.0906
M30
