%TF.GenerationSoftware,KiCad,Pcbnew,8.0.5*%
%TF.CreationDate,2024-10-23T08:28:05+02:00*%
%TF.ProjectId,ws2812b_carry,77733238-3132-4625-9f63-617272792e6b,rev?*%
%TF.SameCoordinates,Original*%
%TF.FileFunction,Soldermask,Bot*%
%TF.FilePolarity,Negative*%
%FSLAX46Y46*%
G04 Gerber Fmt 4.6, Leading zero omitted, Abs format (unit mm)*
G04 Created by KiCad (PCBNEW 8.0.5) date 2024-10-23 08:28:05*
%MOMM*%
%LPD*%
G01*
G04 APERTURE LIST*
%ADD10C,0.900000*%
%ADD11R,1.700000X1.700000*%
%ADD12O,1.700000X1.700000*%
G04 APERTURE END LIST*
D10*
%TO.C,REF\u002A\u002A*%
X138900000Y-86100000D03*
%TD*%
D11*
%TO.C,J2*%
X98500000Y-72525000D03*
D12*
X98500000Y-69985000D03*
X98500000Y-67445000D03*
%TD*%
D10*
%TO.C,REF\u002A\u002A*%
X78900000Y-56100000D03*
%TD*%
%TO.C,REF\u002A\u002A*%
X133100000Y-73900000D03*
%TD*%
%TO.C,REF\u002A\u002A*%
X97100000Y-33900000D03*
%TD*%
D11*
%TO.C,J1*%
X65500000Y-72525000D03*
D12*
X65500000Y-69985000D03*
X65500000Y-67445000D03*
%TD*%
D10*
%TO.C,REF\u002A\u002A*%
X150900000Y-33900000D03*
%TD*%
%TO.C,REF\u002A\u002A*%
X138900000Y-103900000D03*
%TD*%
%TO.C,REF\u002A\u002A*%
X78900000Y-86100000D03*
%TD*%
%TO.C,REF\u002A\u002A*%
X114900000Y-63900000D03*
%TD*%
D11*
%TO.C,J1*%
X149500000Y-52525000D03*
D12*
X149500000Y-49985000D03*
X149500000Y-47445000D03*
%TD*%
D10*
%TO.C,REF\u002A\u002A*%
X73100000Y-33900000D03*
%TD*%
D11*
%TO.C,J1*%
X101500000Y-92525000D03*
D12*
X101500000Y-89985000D03*
X101500000Y-87445000D03*
%TD*%
D10*
%TO.C,REF\u002A\u002A*%
X126900000Y-43900000D03*
%TD*%
%TO.C,REF\u002A\u002A*%
X85100000Y-83900000D03*
%TD*%
%TO.C,REF\u002A\u002A*%
X66900000Y-56100000D03*
%TD*%
%TO.C,REF\u002A\u002A*%
X97100000Y-103900000D03*
%TD*%
%TO.C,REF\u002A\u002A*%
X90900000Y-83900000D03*
%TD*%
%TO.C,REF\u002A\u002A*%
X150900000Y-43900000D03*
%TD*%
%TO.C,REF\u002A\u002A*%
X90900000Y-86100000D03*
%TD*%
%TO.C,REF\u002A\u002A*%
X109100000Y-56100000D03*
%TD*%
%TO.C,REF\u002A\u002A*%
X90900000Y-43900000D03*
%TD*%
%TO.C,REF\u002A\u002A*%
X138900000Y-53900000D03*
%TD*%
%TO.C,REF\u002A\u002A*%
X150900000Y-53900000D03*
%TD*%
%TO.C,REF\u002A\u002A*%
X145100000Y-33900000D03*
%TD*%
%TO.C,REF\u002A\u002A*%
X109100000Y-93900000D03*
%TD*%
D11*
%TO.C,J2*%
X146500000Y-32525000D03*
D12*
X146500000Y-29985000D03*
X146500000Y-27445000D03*
%TD*%
D10*
%TO.C,REF\u002A\u002A*%
X102900000Y-46100000D03*
%TD*%
D11*
%TO.C,J2*%
X74500000Y-102525000D03*
D12*
X74500000Y-99985000D03*
X74500000Y-97445000D03*
%TD*%
D11*
%TO.C,J1*%
X65500000Y-102525000D03*
D12*
X65500000Y-99985000D03*
X65500000Y-97445000D03*
%TD*%
D10*
%TO.C,REF\u002A\u002A*%
X138900000Y-56100000D03*
%TD*%
D11*
%TO.C,J2*%
X158500000Y-32525000D03*
D12*
X158500000Y-29985000D03*
X158500000Y-27445000D03*
%TD*%
D11*
%TO.C,J1*%
X77500000Y-62525000D03*
D12*
X77500000Y-59985000D03*
X77500000Y-57445000D03*
%TD*%
D11*
%TO.C,J2*%
X122500000Y-82525000D03*
D12*
X122500000Y-79985000D03*
X122500000Y-77445000D03*
%TD*%
D10*
%TO.C,REF\u002A\u002A*%
X97100000Y-96100000D03*
%TD*%
%TO.C,REF\u002A\u002A*%
X97100000Y-86100000D03*
%TD*%
%TO.C,REF\u002A\u002A*%
X66900000Y-63900000D03*
%TD*%
%TO.C,REF\u002A\u002A*%
X73100000Y-56100000D03*
%TD*%
%TO.C,REF\u002A\u002A*%
X109100000Y-83900000D03*
%TD*%
%TO.C,REF\u002A\u002A*%
X121100000Y-43900000D03*
%TD*%
%TO.C,REF\u002A\u002A*%
X78900000Y-83900000D03*
%TD*%
D11*
%TO.C,J2*%
X158500000Y-62525000D03*
D12*
X158500000Y-59985000D03*
X158500000Y-57445000D03*
%TD*%
D10*
%TO.C,REF\u002A\u002A*%
X114900000Y-76100000D03*
%TD*%
%TO.C,REF\u002A\u002A*%
X109100000Y-26100000D03*
%TD*%
%TO.C,REF\u002A\u002A*%
X157100000Y-76100000D03*
%TD*%
%TO.C,REF\u002A\u002A*%
X157100000Y-103900000D03*
%TD*%
%TO.C,REF\u002A\u002A*%
X133100000Y-26100000D03*
%TD*%
%TO.C,REF\u002A\u002A*%
X150900000Y-86100000D03*
%TD*%
%TO.C,REF\u002A\u002A*%
X157100000Y-96100000D03*
%TD*%
D11*
%TO.C,J2*%
X146500000Y-62525000D03*
D12*
X146500000Y-59985000D03*
X146500000Y-57445000D03*
%TD*%
D10*
%TO.C,REF\u002A\u002A*%
X109100000Y-96100000D03*
%TD*%
%TO.C,REF\u002A\u002A*%
X97100000Y-53900000D03*
%TD*%
%TO.C,REF\u002A\u002A*%
X114900000Y-56100000D03*
%TD*%
%TO.C,REF\u002A\u002A*%
X90900000Y-46100000D03*
%TD*%
%TO.C,REF\u002A\u002A*%
X85100000Y-26100000D03*
%TD*%
D11*
%TO.C,J1*%
X89500000Y-72525000D03*
D12*
X89500000Y-69985000D03*
X89500000Y-67445000D03*
%TD*%
D10*
%TO.C,REF\u002A\u002A*%
X102900000Y-43900000D03*
%TD*%
%TO.C,REF\u002A\u002A*%
X138900000Y-33900000D03*
%TD*%
%TO.C,REF\u002A\u002A*%
X150900000Y-73900000D03*
%TD*%
%TO.C,REF\u002A\u002A*%
X66900000Y-103900000D03*
%TD*%
%TO.C,REF\u002A\u002A*%
X121100000Y-33900000D03*
%TD*%
D11*
%TO.C,J2*%
X74500000Y-72525000D03*
D12*
X74500000Y-69985000D03*
X74500000Y-67445000D03*
%TD*%
D11*
%TO.C,J2*%
X146500000Y-52525000D03*
D12*
X146500000Y-49985000D03*
X146500000Y-47445000D03*
%TD*%
D11*
%TO.C,J1*%
X89500000Y-52525000D03*
D12*
X89500000Y-49985000D03*
X89500000Y-47445000D03*
%TD*%
D11*
%TO.C,J2*%
X110500000Y-62525000D03*
D12*
X110500000Y-59985000D03*
X110500000Y-57445000D03*
%TD*%
D10*
%TO.C,REF\u002A\u002A*%
X73100000Y-96100000D03*
%TD*%
%TO.C,REF\u002A\u002A*%
X73100000Y-73900000D03*
%TD*%
%TO.C,REF\u002A\u002A*%
X90900000Y-26100000D03*
%TD*%
D11*
%TO.C,J1*%
X89500000Y-32525000D03*
D12*
X89500000Y-29985000D03*
X89500000Y-27445000D03*
%TD*%
D11*
%TO.C,J1*%
X65500000Y-42525000D03*
D12*
X65500000Y-39985000D03*
X65500000Y-37445000D03*
%TD*%
D10*
%TO.C,REF\u002A\u002A*%
X85100000Y-73900000D03*
%TD*%
D11*
%TO.C,J1*%
X137500000Y-82525000D03*
D12*
X137500000Y-79985000D03*
X137500000Y-77445000D03*
%TD*%
D10*
%TO.C,REF\u002A\u002A*%
X126900000Y-33900000D03*
%TD*%
%TO.C,REF\u002A\u002A*%
X114900000Y-53900000D03*
%TD*%
%TO.C,REF\u002A\u002A*%
X157100000Y-63900000D03*
%TD*%
D11*
%TO.C,J1*%
X65500000Y-92525000D03*
D12*
X65500000Y-89985000D03*
X65500000Y-87445000D03*
%TD*%
D10*
%TO.C,REF\u002A\u002A*%
X66900000Y-66100000D03*
%TD*%
%TO.C,REF\u002A\u002A*%
X73100000Y-83900000D03*
%TD*%
D11*
%TO.C,J1*%
X89500000Y-42525000D03*
D12*
X89500000Y-39985000D03*
X89500000Y-37445000D03*
%TD*%
D10*
%TO.C,REF\u002A\u002A*%
X114900000Y-93900000D03*
%TD*%
D11*
%TO.C,J2*%
X98500000Y-62525000D03*
D12*
X98500000Y-59985000D03*
X98500000Y-57445000D03*
%TD*%
D10*
%TO.C,REF\u002A\u002A*%
X114900000Y-43900000D03*
%TD*%
%TO.C,REF\u002A\u002A*%
X145100000Y-76100000D03*
%TD*%
%TO.C,REF\u002A\u002A*%
X102900000Y-73900000D03*
%TD*%
D11*
%TO.C,J2*%
X86500000Y-42525000D03*
D12*
X86500000Y-39985000D03*
X86500000Y-37445000D03*
%TD*%
D10*
%TO.C,REF\u002A\u002A*%
X114900000Y-96100000D03*
%TD*%
D11*
%TO.C,J1*%
X113500000Y-32525000D03*
D12*
X113500000Y-29985000D03*
X113500000Y-27445000D03*
%TD*%
D10*
%TO.C,REF\u002A\u002A*%
X126900000Y-93900000D03*
%TD*%
%TO.C,REF\u002A\u002A*%
X97100000Y-76100000D03*
%TD*%
D11*
%TO.C,J2*%
X158500000Y-92525000D03*
D12*
X158500000Y-89985000D03*
X158500000Y-87445000D03*
%TD*%
D10*
%TO.C,REF\u002A\u002A*%
X145100000Y-83900000D03*
%TD*%
D11*
%TO.C,J1*%
X101500000Y-52525000D03*
D12*
X101500000Y-49985000D03*
X101500000Y-47445000D03*
%TD*%
D11*
%TO.C,J1*%
X65500000Y-52525000D03*
D12*
X65500000Y-49985000D03*
X65500000Y-47445000D03*
%TD*%
D10*
%TO.C,REF\u002A\u002A*%
X66900000Y-53900000D03*
%TD*%
%TO.C,REF\u002A\u002A*%
X157100000Y-93900000D03*
%TD*%
%TO.C,REF\u002A\u002A*%
X157100000Y-56100000D03*
%TD*%
%TO.C,REF\u002A\u002A*%
X114900000Y-73900000D03*
%TD*%
D11*
%TO.C,J2*%
X86500000Y-82525000D03*
D12*
X86500000Y-79985000D03*
X86500000Y-77445000D03*
%TD*%
D10*
%TO.C,REF\u002A\u002A*%
X90900000Y-36100000D03*
%TD*%
D11*
%TO.C,J2*%
X98500000Y-82525000D03*
D12*
X98500000Y-79985000D03*
X98500000Y-77445000D03*
%TD*%
D10*
%TO.C,REF\u002A\u002A*%
X109100000Y-36100000D03*
%TD*%
%TO.C,REF\u002A\u002A*%
X78900000Y-46100000D03*
%TD*%
%TO.C,REF\u002A\u002A*%
X90900000Y-96100000D03*
%TD*%
%TO.C,REF\u002A\u002A*%
X150900000Y-93900000D03*
%TD*%
%TO.C,REF\u002A\u002A*%
X97100000Y-43900000D03*
%TD*%
%TO.C,REF\u002A\u002A*%
X109100000Y-66100000D03*
%TD*%
%TO.C,REF\u002A\u002A*%
X114900000Y-46100000D03*
%TD*%
%TO.C,REF\u002A\u002A*%
X85100000Y-53900000D03*
%TD*%
%TO.C,REF\u002A\u002A*%
X78900000Y-63900000D03*
%TD*%
%TO.C,REF\u002A\u002A*%
X66900000Y-76100000D03*
%TD*%
%TO.C,REF\u002A\u002A*%
X90900000Y-73900000D03*
%TD*%
D11*
%TO.C,J1*%
X101500000Y-72525000D03*
D12*
X101500000Y-69985000D03*
X101500000Y-67445000D03*
%TD*%
D10*
%TO.C,REF\u002A\u002A*%
X90900000Y-33900000D03*
%TD*%
%TO.C,REF\u002A\u002A*%
X133100000Y-56100000D03*
%TD*%
%TO.C,REF\u002A\u002A*%
X145100000Y-46100000D03*
%TD*%
%TO.C,REF\u002A\u002A*%
X97100000Y-36100000D03*
%TD*%
%TO.C,REF\u002A\u002A*%
X145100000Y-43900000D03*
%TD*%
%TO.C,REF\u002A\u002A*%
X90900000Y-103900000D03*
%TD*%
D11*
%TO.C,J2*%
X158500000Y-72525000D03*
D12*
X158500000Y-69985000D03*
X158500000Y-67445000D03*
%TD*%
D10*
%TO.C,REF\u002A\u002A*%
X157100000Y-53900000D03*
%TD*%
%TO.C,REF\u002A\u002A*%
X66900000Y-46100000D03*
%TD*%
D11*
%TO.C,J2*%
X134500000Y-102525000D03*
D12*
X134500000Y-99985000D03*
X134500000Y-97445000D03*
%TD*%
D10*
%TO.C,REF\u002A\u002A*%
X150900000Y-66100000D03*
%TD*%
%TO.C,REF\u002A\u002A*%
X145100000Y-56100000D03*
%TD*%
%TO.C,REF\u002A\u002A*%
X138900000Y-36100000D03*
%TD*%
%TO.C,REF\u002A\u002A*%
X109100000Y-76100000D03*
%TD*%
D11*
%TO.C,J1*%
X101500000Y-82525000D03*
D12*
X101500000Y-79985000D03*
X101500000Y-77445000D03*
%TD*%
D11*
%TO.C,J2*%
X74500000Y-52525000D03*
D12*
X74500000Y-49985000D03*
X74500000Y-47445000D03*
%TD*%
D11*
%TO.C,J2*%
X98500000Y-42525000D03*
D12*
X98500000Y-39985000D03*
X98500000Y-37445000D03*
%TD*%
D10*
%TO.C,REF\u002A\u002A*%
X102900000Y-66100000D03*
%TD*%
%TO.C,REF\u002A\u002A*%
X73100000Y-26100000D03*
%TD*%
D11*
%TO.C,J1*%
X137500000Y-42525000D03*
D12*
X137500000Y-39985000D03*
X137500000Y-37445000D03*
%TD*%
D11*
%TO.C,J2*%
X110500000Y-42525000D03*
D12*
X110500000Y-39985000D03*
X110500000Y-37445000D03*
%TD*%
D11*
%TO.C,J2*%
X110500000Y-92525000D03*
D12*
X110500000Y-89985000D03*
X110500000Y-87445000D03*
%TD*%
D11*
%TO.C,J2*%
X122500000Y-32525000D03*
D12*
X122500000Y-29985000D03*
X122500000Y-27445000D03*
%TD*%
D10*
%TO.C,REF\u002A\u002A*%
X109100000Y-86100000D03*
%TD*%
%TO.C,REF\u002A\u002A*%
X66900000Y-83900000D03*
%TD*%
%TO.C,REF\u002A\u002A*%
X150900000Y-56100000D03*
%TD*%
%TO.C,REF\u002A\u002A*%
X138900000Y-73900000D03*
%TD*%
D11*
%TO.C,J1*%
X113500000Y-82525000D03*
D12*
X113500000Y-79985000D03*
X113500000Y-77445000D03*
%TD*%
D11*
%TO.C,J2*%
X98500000Y-52525000D03*
D12*
X98500000Y-49985000D03*
X98500000Y-47445000D03*
%TD*%
D11*
%TO.C,J2*%
X74500000Y-92525000D03*
D12*
X74500000Y-89985000D03*
X74500000Y-87445000D03*
%TD*%
D10*
%TO.C,REF\u002A\u002A*%
X138900000Y-46100000D03*
%TD*%
%TO.C,REF\u002A\u002A*%
X150900000Y-63900000D03*
%TD*%
%TO.C,REF\u002A\u002A*%
X138900000Y-26100000D03*
%TD*%
D11*
%TO.C,J1*%
X149500000Y-72525000D03*
D12*
X149500000Y-69985000D03*
X149500000Y-67445000D03*
%TD*%
D10*
%TO.C,REF\u002A\u002A*%
X73100000Y-76100000D03*
%TD*%
%TO.C,REF\u002A\u002A*%
X133100000Y-53900000D03*
%TD*%
D11*
%TO.C,J1*%
X149500000Y-102525000D03*
D12*
X149500000Y-99985000D03*
X149500000Y-97445000D03*
%TD*%
D11*
%TO.C,J2*%
X134500000Y-52525000D03*
D12*
X134500000Y-49985000D03*
X134500000Y-47445000D03*
%TD*%
D10*
%TO.C,REF\u002A\u002A*%
X157100000Y-36100000D03*
%TD*%
%TO.C,REF\u002A\u002A*%
X85100000Y-63900000D03*
%TD*%
D11*
%TO.C,J2*%
X134500000Y-72525000D03*
D12*
X134500000Y-69985000D03*
X134500000Y-67445000D03*
%TD*%
D10*
%TO.C,REF\u002A\u002A*%
X66900000Y-86100000D03*
%TD*%
%TO.C,REF\u002A\u002A*%
X66900000Y-43900000D03*
%TD*%
%TO.C,REF\u002A\u002A*%
X145100000Y-86100000D03*
%TD*%
%TO.C,REF\u002A\u002A*%
X73100000Y-53900000D03*
%TD*%
D11*
%TO.C,J1*%
X137500000Y-62525000D03*
D12*
X137500000Y-59985000D03*
X137500000Y-57445000D03*
%TD*%
D10*
%TO.C,REF\u002A\u002A*%
X97100000Y-83900000D03*
%TD*%
D11*
%TO.C,J2*%
X74500000Y-62525000D03*
D12*
X74500000Y-59985000D03*
X74500000Y-57445000D03*
%TD*%
D11*
%TO.C,J1*%
X137500000Y-92525000D03*
D12*
X137500000Y-89985000D03*
X137500000Y-87445000D03*
%TD*%
D10*
%TO.C,REF\u002A\u002A*%
X126900000Y-96100000D03*
%TD*%
D11*
%TO.C,J1*%
X137500000Y-72525000D03*
D12*
X137500000Y-69985000D03*
X137500000Y-67445000D03*
%TD*%
D10*
%TO.C,REF\u002A\u002A*%
X102900000Y-86100000D03*
%TD*%
%TO.C,REF\u002A\u002A*%
X73100000Y-36100000D03*
%TD*%
D11*
%TO.C,J1*%
X101500000Y-62525000D03*
D12*
X101500000Y-59985000D03*
X101500000Y-57445000D03*
%TD*%
D10*
%TO.C,REF\u002A\u002A*%
X97100000Y-46100000D03*
%TD*%
D11*
%TO.C,J2*%
X122500000Y-52525000D03*
D12*
X122500000Y-49985000D03*
X122500000Y-47445000D03*
%TD*%
D10*
%TO.C,REF\u002A\u002A*%
X126900000Y-73900000D03*
%TD*%
%TO.C,REF\u002A\u002A*%
X114900000Y-83900000D03*
%TD*%
D11*
%TO.C,J1*%
X101500000Y-32525000D03*
D12*
X101500000Y-29985000D03*
X101500000Y-27445000D03*
%TD*%
D11*
%TO.C,J1*%
X125500000Y-32525000D03*
D12*
X125500000Y-29985000D03*
X125500000Y-27445000D03*
%TD*%
D11*
%TO.C,J1*%
X89500000Y-92525000D03*
D12*
X89500000Y-89985000D03*
X89500000Y-87445000D03*
%TD*%
D10*
%TO.C,REF\u002A\u002A*%
X145100000Y-93900000D03*
%TD*%
%TO.C,REF\u002A\u002A*%
X85100000Y-56100000D03*
%TD*%
%TO.C,REF\u002A\u002A*%
X114900000Y-33900000D03*
%TD*%
%TO.C,REF\u002A\u002A*%
X66900000Y-36100000D03*
%TD*%
%TO.C,REF\u002A\u002A*%
X150900000Y-83900000D03*
%TD*%
%TO.C,REF\u002A\u002A*%
X97100000Y-63900000D03*
%TD*%
D11*
%TO.C,J2*%
X110500000Y-102525000D03*
D12*
X110500000Y-99985000D03*
X110500000Y-97445000D03*
%TD*%
D10*
%TO.C,REF\u002A\u002A*%
X73100000Y-66100000D03*
%TD*%
D11*
%TO.C,J1*%
X89500000Y-62525000D03*
D12*
X89500000Y-59985000D03*
X89500000Y-57445000D03*
%TD*%
D11*
%TO.C,J2*%
X146500000Y-42525000D03*
D12*
X146500000Y-39985000D03*
X146500000Y-37445000D03*
%TD*%
D10*
%TO.C,REF\u002A\u002A*%
X78900000Y-103900000D03*
%TD*%
D11*
%TO.C,J2*%
X110500000Y-52525000D03*
D12*
X110500000Y-49985000D03*
X110500000Y-47445000D03*
%TD*%
D10*
%TO.C,REF\u002A\u002A*%
X66900000Y-93900000D03*
%TD*%
D11*
%TO.C,J1*%
X77500000Y-92525000D03*
D12*
X77500000Y-89985000D03*
X77500000Y-87445000D03*
%TD*%
D10*
%TO.C,REF\u002A\u002A*%
X102900000Y-96100000D03*
%TD*%
%TO.C,REF\u002A\u002A*%
X90900000Y-63900000D03*
%TD*%
%TO.C,REF\u002A\u002A*%
X85100000Y-93900000D03*
%TD*%
D11*
%TO.C,J2*%
X122500000Y-62525000D03*
D12*
X122500000Y-59985000D03*
X122500000Y-57445000D03*
%TD*%
D10*
%TO.C,REF\u002A\u002A*%
X78900000Y-73900000D03*
%TD*%
%TO.C,REF\u002A\u002A*%
X109100000Y-33900000D03*
%TD*%
%TO.C,REF\u002A\u002A*%
X133100000Y-46100000D03*
%TD*%
%TO.C,REF\u002A\u002A*%
X78900000Y-33900000D03*
%TD*%
%TO.C,REF\u002A\u002A*%
X73100000Y-86100000D03*
%TD*%
D11*
%TO.C,J1*%
X89500000Y-102525000D03*
D12*
X89500000Y-99985000D03*
X89500000Y-97445000D03*
%TD*%
D10*
%TO.C,REF\u002A\u002A*%
X109100000Y-53900000D03*
%TD*%
D11*
%TO.C,J2*%
X158500000Y-42525000D03*
D12*
X158500000Y-39985000D03*
X158500000Y-37445000D03*
%TD*%
D10*
%TO.C,REF\u002A\u002A*%
X121100000Y-83900000D03*
%TD*%
%TO.C,REF\u002A\u002A*%
X157100000Y-26100000D03*
%TD*%
%TO.C,REF\u002A\u002A*%
X97100000Y-93900000D03*
%TD*%
%TO.C,REF\u002A\u002A*%
X121100000Y-63900000D03*
%TD*%
D11*
%TO.C,J2*%
X134500000Y-32525000D03*
D12*
X134500000Y-29985000D03*
X134500000Y-27445000D03*
%TD*%
D11*
%TO.C,J1*%
X125500000Y-62525000D03*
D12*
X125500000Y-59985000D03*
X125500000Y-57445000D03*
%TD*%
D11*
%TO.C,J1*%
X137500000Y-102525000D03*
D12*
X137500000Y-99985000D03*
X137500000Y-97445000D03*
%TD*%
D10*
%TO.C,REF\u002A\u002A*%
X97100000Y-66100000D03*
%TD*%
D11*
%TO.C,J2*%
X158500000Y-102525000D03*
D12*
X158500000Y-99985000D03*
X158500000Y-97445000D03*
%TD*%
D10*
%TO.C,REF\u002A\u002A*%
X114900000Y-66100000D03*
%TD*%
%TO.C,REF\u002A\u002A*%
X150900000Y-103900000D03*
%TD*%
%TO.C,REF\u002A\u002A*%
X150900000Y-96100000D03*
%TD*%
%TO.C,REF\u002A\u002A*%
X133100000Y-33900000D03*
%TD*%
D11*
%TO.C,J2*%
X74500000Y-32525000D03*
D12*
X74500000Y-29985000D03*
X74500000Y-27445000D03*
%TD*%
D10*
%TO.C,REF\u002A\u002A*%
X73100000Y-93900000D03*
%TD*%
%TO.C,REF\u002A\u002A*%
X66900000Y-26100000D03*
%TD*%
%TO.C,REF\u002A\u002A*%
X102900000Y-26100000D03*
%TD*%
%TO.C,REF\u002A\u002A*%
X133100000Y-83900000D03*
%TD*%
%TO.C,REF\u002A\u002A*%
X133100000Y-36100000D03*
%TD*%
%TO.C,REF\u002A\u002A*%
X85100000Y-43900000D03*
%TD*%
%TO.C,REF\u002A\u002A*%
X121100000Y-66100000D03*
%TD*%
%TO.C,REF\u002A\u002A*%
X138900000Y-76100000D03*
%TD*%
%TO.C,REF\u002A\u002A*%
X78900000Y-43900000D03*
%TD*%
D11*
%TO.C,J2*%
X146500000Y-82525000D03*
D12*
X146500000Y-79985000D03*
X146500000Y-77445000D03*
%TD*%
D10*
%TO.C,REF\u002A\u002A*%
X145100000Y-63900000D03*
%TD*%
%TO.C,REF\u002A\u002A*%
X85100000Y-76100000D03*
%TD*%
%TO.C,REF\u002A\u002A*%
X109100000Y-46100000D03*
%TD*%
%TO.C,REF\u002A\u002A*%
X157100000Y-86100000D03*
%TD*%
%TO.C,REF\u002A\u002A*%
X102900000Y-103900000D03*
%TD*%
%TO.C,REF\u002A\u002A*%
X126900000Y-46100000D03*
%TD*%
%TO.C,REF\u002A\u002A*%
X145100000Y-36100000D03*
%TD*%
D11*
%TO.C,J1*%
X77500000Y-82525000D03*
D12*
X77500000Y-79985000D03*
X77500000Y-77445000D03*
%TD*%
D10*
%TO.C,REF\u002A\u002A*%
X66900000Y-73900000D03*
%TD*%
D11*
%TO.C,J2*%
X158500000Y-82525000D03*
D12*
X158500000Y-79985000D03*
X158500000Y-77445000D03*
%TD*%
D11*
%TO.C,J2*%
X86500000Y-102525000D03*
D12*
X86500000Y-99985000D03*
X86500000Y-97445000D03*
%TD*%
D10*
%TO.C,REF\u002A\u002A*%
X109100000Y-43900000D03*
%TD*%
%TO.C,REF\u002A\u002A*%
X138900000Y-96100000D03*
%TD*%
%TO.C,REF\u002A\u002A*%
X66900000Y-33900000D03*
%TD*%
%TO.C,REF\u002A\u002A*%
X85100000Y-66100000D03*
%TD*%
D11*
%TO.C,J1*%
X113500000Y-42525000D03*
D12*
X113500000Y-39985000D03*
X113500000Y-37445000D03*
%TD*%
D10*
%TO.C,REF\u002A\u002A*%
X133100000Y-96100000D03*
%TD*%
D11*
%TO.C,J2*%
X134500000Y-62525000D03*
D12*
X134500000Y-59985000D03*
X134500000Y-57445000D03*
%TD*%
D10*
%TO.C,REF\u002A\u002A*%
X126900000Y-36100000D03*
%TD*%
%TO.C,REF\u002A\u002A*%
X102900000Y-83900000D03*
%TD*%
D11*
%TO.C,J1*%
X149500000Y-82525000D03*
D12*
X149500000Y-79985000D03*
X149500000Y-77445000D03*
%TD*%
D10*
%TO.C,REF\u002A\u002A*%
X157100000Y-83900000D03*
%TD*%
%TO.C,REF\u002A\u002A*%
X121100000Y-73900000D03*
%TD*%
%TO.C,REF\u002A\u002A*%
X133100000Y-103900000D03*
%TD*%
D11*
%TO.C,J2*%
X86500000Y-52525000D03*
D12*
X86500000Y-49985000D03*
X86500000Y-47445000D03*
%TD*%
D10*
%TO.C,REF\u002A\u002A*%
X102900000Y-36100000D03*
%TD*%
%TO.C,REF\u002A\u002A*%
X145100000Y-103900000D03*
%TD*%
D11*
%TO.C,J1*%
X149500000Y-92525000D03*
D12*
X149500000Y-89985000D03*
X149500000Y-87445000D03*
%TD*%
D11*
%TO.C,J2*%
X146500000Y-92525000D03*
D12*
X146500000Y-89985000D03*
X146500000Y-87445000D03*
%TD*%
D10*
%TO.C,REF\u002A\u002A*%
X102900000Y-53900000D03*
%TD*%
%TO.C,REF\u002A\u002A*%
X133100000Y-66100000D03*
%TD*%
D11*
%TO.C,J1*%
X149500000Y-32525000D03*
D12*
X149500000Y-29985000D03*
X149500000Y-27445000D03*
%TD*%
D11*
%TO.C,J2*%
X98500000Y-102525000D03*
D12*
X98500000Y-99985000D03*
X98500000Y-97445000D03*
%TD*%
D10*
%TO.C,REF\u002A\u002A*%
X157100000Y-66100000D03*
%TD*%
%TO.C,REF\u002A\u002A*%
X150900000Y-36100000D03*
%TD*%
%TO.C,REF\u002A\u002A*%
X157100000Y-73900000D03*
%TD*%
%TO.C,REF\u002A\u002A*%
X121100000Y-53900000D03*
%TD*%
%TO.C,REF\u002A\u002A*%
X126900000Y-56100000D03*
%TD*%
%TO.C,REF\u002A\u002A*%
X121100000Y-46100000D03*
%TD*%
D11*
%TO.C,J2*%
X134500000Y-82525000D03*
D12*
X134500000Y-79985000D03*
X134500000Y-77445000D03*
%TD*%
D11*
%TO.C,J1*%
X77500000Y-72525000D03*
D12*
X77500000Y-69985000D03*
X77500000Y-67445000D03*
%TD*%
D10*
%TO.C,REF\u002A\u002A*%
X102900000Y-76100000D03*
%TD*%
%TO.C,REF\u002A\u002A*%
X90900000Y-93900000D03*
%TD*%
D11*
%TO.C,J1*%
X125500000Y-42525000D03*
D12*
X125500000Y-39985000D03*
X125500000Y-37445000D03*
%TD*%
D10*
%TO.C,REF\u002A\u002A*%
X114900000Y-86100000D03*
%TD*%
D11*
%TO.C,J2*%
X122500000Y-92525000D03*
D12*
X122500000Y-89985000D03*
X122500000Y-87445000D03*
%TD*%
D10*
%TO.C,REF\u002A\u002A*%
X145100000Y-26100000D03*
%TD*%
%TO.C,REF\u002A\u002A*%
X85100000Y-36100000D03*
%TD*%
D11*
%TO.C,J2*%
X98500000Y-92525000D03*
D12*
X98500000Y-89985000D03*
X98500000Y-87445000D03*
%TD*%
D10*
%TO.C,REF\u002A\u002A*%
X138900000Y-93900000D03*
%TD*%
%TO.C,REF\u002A\u002A*%
X73100000Y-43900000D03*
%TD*%
D11*
%TO.C,J1*%
X113500000Y-72525000D03*
D12*
X113500000Y-69985000D03*
X113500000Y-67445000D03*
%TD*%
D10*
%TO.C,REF\u002A\u002A*%
X150900000Y-46100000D03*
%TD*%
D11*
%TO.C,J2*%
X110500000Y-72525000D03*
D12*
X110500000Y-69985000D03*
X110500000Y-67445000D03*
%TD*%
D11*
%TO.C,J1*%
X77500000Y-102525000D03*
D12*
X77500000Y-99985000D03*
X77500000Y-97445000D03*
%TD*%
D11*
%TO.C,J1*%
X125500000Y-52525000D03*
D12*
X125500000Y-49985000D03*
X125500000Y-47445000D03*
%TD*%
D11*
%TO.C,J1*%
X77500000Y-42525000D03*
D12*
X77500000Y-39985000D03*
X77500000Y-37445000D03*
%TD*%
D11*
%TO.C,J2*%
X134500000Y-92525000D03*
D12*
X134500000Y-89985000D03*
X134500000Y-87445000D03*
%TD*%
D10*
%TO.C,REF\u002A\u002A*%
X126900000Y-103900000D03*
%TD*%
%TO.C,REF\u002A\u002A*%
X97100000Y-26100000D03*
%TD*%
%TO.C,REF\u002A\u002A*%
X121100000Y-36100000D03*
%TD*%
D11*
%TO.C,J2*%
X122500000Y-102525000D03*
D12*
X122500000Y-99985000D03*
X122500000Y-97445000D03*
%TD*%
D10*
%TO.C,REF\u002A\u002A*%
X73100000Y-63900000D03*
%TD*%
%TO.C,REF\u002A\u002A*%
X78900000Y-26100000D03*
%TD*%
D11*
%TO.C,J1*%
X65500000Y-82525000D03*
D12*
X65500000Y-79985000D03*
X65500000Y-77445000D03*
%TD*%
D11*
%TO.C,J1*%
X101500000Y-102525000D03*
D12*
X101500000Y-99985000D03*
X101500000Y-97445000D03*
%TD*%
D10*
%TO.C,REF\u002A\u002A*%
X66900000Y-96100000D03*
%TD*%
%TO.C,REF\u002A\u002A*%
X150900000Y-26100000D03*
%TD*%
D11*
%TO.C,J1*%
X149500000Y-42525000D03*
D12*
X149500000Y-39985000D03*
X149500000Y-37445000D03*
%TD*%
D10*
%TO.C,REF\u002A\u002A*%
X109100000Y-73900000D03*
%TD*%
%TO.C,REF\u002A\u002A*%
X78900000Y-93900000D03*
%TD*%
%TO.C,REF\u002A\u002A*%
X85100000Y-33900000D03*
%TD*%
%TO.C,REF\u002A\u002A*%
X157100000Y-46100000D03*
%TD*%
%TO.C,REF\u002A\u002A*%
X78900000Y-96100000D03*
%TD*%
D11*
%TO.C,J1*%
X149500000Y-62525000D03*
D12*
X149500000Y-59985000D03*
X149500000Y-57445000D03*
%TD*%
D10*
%TO.C,REF\u002A\u002A*%
X133100000Y-93900000D03*
%TD*%
D11*
%TO.C,J1*%
X125500000Y-92525000D03*
D12*
X125500000Y-89985000D03*
X125500000Y-87445000D03*
%TD*%
D10*
%TO.C,REF\u002A\u002A*%
X102900000Y-93900000D03*
%TD*%
D11*
%TO.C,J1*%
X77500000Y-52525000D03*
D12*
X77500000Y-49985000D03*
X77500000Y-47445000D03*
%TD*%
D10*
%TO.C,REF\u002A\u002A*%
X73100000Y-46100000D03*
%TD*%
%TO.C,REF\u002A\u002A*%
X133100000Y-86100000D03*
%TD*%
D11*
%TO.C,J1*%
X137500000Y-32525000D03*
D12*
X137500000Y-29985000D03*
X137500000Y-27445000D03*
%TD*%
D10*
%TO.C,REF\u002A\u002A*%
X126900000Y-66100000D03*
%TD*%
%TO.C,REF\u002A\u002A*%
X114900000Y-36100000D03*
%TD*%
%TO.C,REF\u002A\u002A*%
X85100000Y-96100000D03*
%TD*%
%TO.C,REF\u002A\u002A*%
X138900000Y-43900000D03*
%TD*%
D11*
%TO.C,J2*%
X158500000Y-52525000D03*
D12*
X158500000Y-49985000D03*
X158500000Y-47445000D03*
%TD*%
D11*
%TO.C,J1*%
X125500000Y-82525000D03*
D12*
X125500000Y-79985000D03*
X125500000Y-77445000D03*
%TD*%
D10*
%TO.C,REF\u002A\u002A*%
X145100000Y-66100000D03*
%TD*%
%TO.C,REF\u002A\u002A*%
X157100000Y-43900000D03*
%TD*%
D11*
%TO.C,J1*%
X89500000Y-82525000D03*
D12*
X89500000Y-79985000D03*
X89500000Y-77445000D03*
%TD*%
D10*
%TO.C,REF\u002A\u002A*%
X109100000Y-63900000D03*
%TD*%
%TO.C,REF\u002A\u002A*%
X138900000Y-63900000D03*
%TD*%
%TO.C,REF\u002A\u002A*%
X126900000Y-26100000D03*
%TD*%
%TO.C,REF\u002A\u002A*%
X145100000Y-96100000D03*
%TD*%
D11*
%TO.C,J1*%
X113500000Y-62525000D03*
D12*
X113500000Y-59985000D03*
X113500000Y-57445000D03*
%TD*%
D11*
%TO.C,J1*%
X65500000Y-62525000D03*
D12*
X65500000Y-59985000D03*
X65500000Y-57445000D03*
%TD*%
D10*
%TO.C,REF\u002A\u002A*%
X73100000Y-103900000D03*
%TD*%
%TO.C,REF\u002A\u002A*%
X90900000Y-76100000D03*
%TD*%
%TO.C,REF\u002A\u002A*%
X121100000Y-93900000D03*
%TD*%
D11*
%TO.C,J1*%
X77500000Y-32525000D03*
D12*
X77500000Y-29985000D03*
X77500000Y-27445000D03*
%TD*%
D10*
%TO.C,REF\u002A\u002A*%
X78900000Y-53900000D03*
%TD*%
%TO.C,REF\u002A\u002A*%
X78900000Y-36100000D03*
%TD*%
%TO.C,REF\u002A\u002A*%
X133100000Y-43900000D03*
%TD*%
D11*
%TO.C,J2*%
X134500000Y-42525000D03*
D12*
X134500000Y-39985000D03*
X134500000Y-37445000D03*
%TD*%
D10*
%TO.C,REF\u002A\u002A*%
X121100000Y-76100000D03*
%TD*%
%TO.C,REF\u002A\u002A*%
X102900000Y-33900000D03*
%TD*%
%TO.C,REF\u002A\u002A*%
X97100000Y-73900000D03*
%TD*%
%TO.C,REF\u002A\u002A*%
X138900000Y-66100000D03*
%TD*%
D11*
%TO.C,J1*%
X125500000Y-102525000D03*
D12*
X125500000Y-99985000D03*
X125500000Y-97445000D03*
%TD*%
D11*
%TO.C,J2*%
X74500000Y-42525000D03*
D12*
X74500000Y-39985000D03*
X74500000Y-37445000D03*
%TD*%
D10*
%TO.C,REF\u002A\u002A*%
X85100000Y-86100000D03*
%TD*%
%TO.C,REF\u002A\u002A*%
X90900000Y-56100000D03*
%TD*%
%TO.C,REF\u002A\u002A*%
X114900000Y-103900000D03*
%TD*%
D11*
%TO.C,J1*%
X125500000Y-72525000D03*
D12*
X125500000Y-69985000D03*
X125500000Y-67445000D03*
%TD*%
D10*
%TO.C,REF\u002A\u002A*%
X109100000Y-103900000D03*
%TD*%
%TO.C,REF\u002A\u002A*%
X133100000Y-76100000D03*
%TD*%
%TO.C,REF\u002A\u002A*%
X126900000Y-83900000D03*
%TD*%
%TO.C,REF\u002A\u002A*%
X102900000Y-63900000D03*
%TD*%
%TO.C,REF\u002A\u002A*%
X145100000Y-73900000D03*
%TD*%
D11*
%TO.C,J2*%
X110500000Y-82525000D03*
D12*
X110500000Y-79985000D03*
X110500000Y-77445000D03*
%TD*%
D11*
%TO.C,J2*%
X74500000Y-82525000D03*
D12*
X74500000Y-79985000D03*
X74500000Y-77445000D03*
%TD*%
D10*
%TO.C,REF\u002A\u002A*%
X85100000Y-46100000D03*
%TD*%
%TO.C,REF\u002A\u002A*%
X78900000Y-76100000D03*
%TD*%
D11*
%TO.C,J1*%
X113500000Y-92525000D03*
D12*
X113500000Y-89985000D03*
X113500000Y-87445000D03*
%TD*%
D11*
%TO.C,J2*%
X86500000Y-32525000D03*
D12*
X86500000Y-29985000D03*
X86500000Y-27445000D03*
%TD*%
D11*
%TO.C,J2*%
X146500000Y-102525000D03*
D12*
X146500000Y-99985000D03*
X146500000Y-97445000D03*
%TD*%
D10*
%TO.C,REF\u002A\u002A*%
X102900000Y-56100000D03*
%TD*%
D11*
%TO.C,J2*%
X86500000Y-92525000D03*
D12*
X86500000Y-89985000D03*
X86500000Y-87445000D03*
%TD*%
D11*
%TO.C,J2*%
X86500000Y-62525000D03*
D12*
X86500000Y-59985000D03*
X86500000Y-57445000D03*
%TD*%
D11*
%TO.C,J2*%
X98500000Y-32525000D03*
D12*
X98500000Y-29985000D03*
X98500000Y-27445000D03*
%TD*%
D11*
%TO.C,J2*%
X146500000Y-72525000D03*
D12*
X146500000Y-69985000D03*
X146500000Y-67445000D03*
%TD*%
D11*
%TO.C,J2*%
X86500000Y-72525000D03*
D12*
X86500000Y-69985000D03*
X86500000Y-67445000D03*
%TD*%
D11*
%TO.C,J1*%
X113500000Y-102525000D03*
D12*
X113500000Y-99985000D03*
X113500000Y-97445000D03*
%TD*%
D10*
%TO.C,REF\u002A\u002A*%
X121100000Y-56100000D03*
%TD*%
%TO.C,REF\u002A\u002A*%
X150900000Y-76100000D03*
%TD*%
%TO.C,REF\u002A\u002A*%
X90900000Y-53900000D03*
%TD*%
%TO.C,REF\u002A\u002A*%
X85100000Y-103900000D03*
%TD*%
%TO.C,REF\u002A\u002A*%
X90900000Y-66100000D03*
%TD*%
%TO.C,REF\u002A\u002A*%
X133100000Y-63900000D03*
%TD*%
%TO.C,REF\u002A\u002A*%
X97100000Y-56100000D03*
%TD*%
%TO.C,REF\u002A\u002A*%
X157100000Y-33900000D03*
%TD*%
D11*
%TO.C,J1*%
X137500000Y-52525000D03*
D12*
X137500000Y-49985000D03*
X137500000Y-47445000D03*
%TD*%
D11*
%TO.C,J1*%
X101500000Y-42525000D03*
D12*
X101500000Y-39985000D03*
X101500000Y-37445000D03*
%TD*%
D10*
%TO.C,REF\u002A\u002A*%
X138900000Y-83900000D03*
%TD*%
%TO.C,REF\u002A\u002A*%
X145100000Y-53900000D03*
%TD*%
D11*
%TO.C,J2*%
X122500000Y-72525000D03*
D12*
X122500000Y-69985000D03*
X122500000Y-67445000D03*
%TD*%
D11*
%TO.C,J1*%
X65500000Y-32525000D03*
D12*
X65500000Y-29985000D03*
X65500000Y-27445000D03*
%TD*%
D10*
%TO.C,REF\u002A\u002A*%
X121100000Y-86100000D03*
%TD*%
%TO.C,REF\u002A\u002A*%
X126900000Y-53900000D03*
%TD*%
%TO.C,REF\u002A\u002A*%
X126900000Y-86100000D03*
%TD*%
%TO.C,REF\u002A\u002A*%
X126900000Y-76100000D03*
%TD*%
D11*
%TO.C,J2*%
X110500000Y-32525000D03*
D12*
X110500000Y-29985000D03*
X110500000Y-27445000D03*
%TD*%
D10*
%TO.C,REF\u002A\u002A*%
X114900000Y-26100000D03*
%TD*%
D11*
%TO.C,J2*%
X122500000Y-42525000D03*
D12*
X122500000Y-39985000D03*
X122500000Y-37445000D03*
%TD*%
D10*
%TO.C,REF\u002A\u002A*%
X121100000Y-26100000D03*
%TD*%
%TO.C,REF\u002A\u002A*%
X126900000Y-63900000D03*
%TD*%
D11*
%TO.C,J1*%
X113500000Y-52525000D03*
D12*
X113500000Y-49985000D03*
X113500000Y-47445000D03*
%TD*%
D10*
%TO.C,REF\u002A\u002A*%
X78900000Y-66100000D03*
%TD*%
%TO.C,REF\u002A\u002A*%
X121100000Y-103900000D03*
%TD*%
%TO.C,REF\u002A\u002A*%
X121100000Y-96100000D03*
%TD*%
M02*
