M48
; DRILL file {KiCad 8.0.5} date 2024-10-23T08:19:47+0200
; FORMAT={-:-/ absolute / inch / decimal}
; #@! TF.CreationDate,2024-10-23T08:19:47+02:00
; #@! TF.GenerationSoftware,Kicad,Pcbnew,8.0.5
; #@! TF.FileFunction,Plated,1,2,PTH
FMAT,2
INCH
; #@! TA.AperFunction,Plated,PTH,ViaDrill
T1C0.0118
; #@! TA.AperFunction,Plated,PTH,ComponentDrill
T2C0.0394
%
G90
G05
T1
X2.5472Y-1.2283
X2.5472Y-1.622
X2.5472Y-2.0157
X2.5472Y-2.4094
X2.5472Y-2.8031
X2.5472Y-3.1969
X2.5472Y-3.5906
X2.5472Y-3.9843
X2.5512Y-1.1339
X2.5512Y-1.5276
X2.5512Y-1.9213
X2.5512Y-2.315
X2.5512Y-2.7087
X2.5512Y-3.1024
X2.5512Y-3.4961
X2.5512Y-3.8898
X2.6378Y-1.2244
X2.6378Y-1.6181
X2.6378Y-2.0118
X2.6378Y-2.4055
X2.6378Y-2.7992
X2.6378Y-3.1929
X2.6378Y-3.5866
X2.6378Y-3.9803
X2.7559Y-1.1811
X2.7559Y-1.5748
X2.7559Y-1.9685
X2.7559Y-2.3622
X2.7559Y-2.7559
X2.7559Y-3.1496
X2.7559Y-3.5433
X2.7559Y-3.937
X2.7598Y-1.2402
X2.7598Y-1.6339
X2.7598Y-2.0276
X2.7598Y-2.4213
X2.7598Y-2.815
X2.7598Y-3.2087
X2.7598Y-3.6024
X2.7598Y-3.9961
X2.8209Y-1.124
X2.8209Y-1.5177
X2.8209Y-1.9114
X2.8209Y-2.3051
X2.8209Y-2.6988
X2.8209Y-3.0925
X2.8209Y-3.4862
X2.8209Y-3.8799
X2.8504Y-1.2323
X2.8504Y-1.626
X2.8504Y-2.0197
X2.8504Y-2.4134
X2.8504Y-2.8071
X2.8504Y-3.2008
X2.8504Y-3.5945
X2.8504Y-3.9882
X2.9606Y-1.1378
X2.9606Y-1.2244
X2.9606Y-1.5315
X2.9606Y-1.6181
X2.9606Y-1.9252
X2.9606Y-2.0118
X2.9606Y-2.3189
X2.9606Y-2.4055
X2.9606Y-2.7126
X2.9606Y-2.7992
X2.9606Y-3.1063
X2.9606Y-3.1929
X2.9606Y-3.5
X2.9606Y-3.5866
X2.9606Y-3.8937
X2.9606Y-3.9803
X3.0197Y-1.2283
X3.0197Y-1.622
X3.0197Y-2.0157
X3.0197Y-2.4094
X3.0197Y-2.8031
X3.0197Y-3.1969
X3.0197Y-3.5906
X3.0197Y-3.9843
X3.0236Y-1.1339
X3.0236Y-1.5276
X3.0236Y-1.9213
X3.0236Y-2.315
X3.0236Y-2.7087
X3.0236Y-3.1024
X3.0236Y-3.4961
X3.0236Y-3.8898
X3.1102Y-1.2244
X3.1102Y-1.6181
X3.1102Y-2.0118
X3.1102Y-2.4055
X3.1102Y-2.7992
X3.1102Y-3.1929
X3.1102Y-3.5866
X3.1102Y-3.9803
X3.2283Y-1.1811
X3.2283Y-1.5748
X3.2283Y-1.9685
X3.2283Y-2.3622
X3.2283Y-2.7559
X3.2283Y-3.1496
X3.2283Y-3.5433
X3.2283Y-3.937
X3.2323Y-1.2402
X3.2323Y-1.6339
X3.2323Y-2.0276
X3.2323Y-2.4213
X3.2323Y-2.815
X3.2323Y-3.2087
X3.2323Y-3.6024
X3.2323Y-3.9961
X3.2933Y-1.124
X3.2933Y-1.5177
X3.2933Y-1.9114
X3.2933Y-2.3051
X3.2933Y-2.6988
X3.2933Y-3.0925
X3.2933Y-3.4862
X3.2933Y-3.8799
X3.3228Y-1.2323
X3.3228Y-1.626
X3.3228Y-2.0197
X3.3228Y-2.4134
X3.3228Y-2.8071
X3.3228Y-3.2008
X3.3228Y-3.5945
X3.3228Y-3.9882
X3.4331Y-1.1378
X3.4331Y-1.2244
X3.4331Y-1.5315
X3.4331Y-1.6181
X3.4331Y-1.9252
X3.4331Y-2.0118
X3.4331Y-2.3189
X3.4331Y-2.4055
X3.4331Y-2.7126
X3.4331Y-2.7992
X3.4331Y-3.1063
X3.4331Y-3.1929
X3.4331Y-3.5
X3.4331Y-3.5866
X3.4331Y-3.8937
X3.4331Y-3.9803
X3.4921Y-1.2283
X3.4921Y-1.622
X3.4921Y-2.0157
X3.4921Y-2.4094
X3.4921Y-2.8031
X3.4921Y-3.1969
X3.4921Y-3.5906
X3.4921Y-3.9843
X3.4961Y-1.1339
X3.4961Y-1.5276
X3.4961Y-1.9213
X3.4961Y-2.315
X3.4961Y-2.7087
X3.4961Y-3.1024
X3.4961Y-3.4961
X3.4961Y-3.8898
X3.5827Y-1.2244
X3.5827Y-1.6181
X3.5827Y-2.0118
X3.5827Y-2.4055
X3.5827Y-2.7992
X3.5827Y-3.1929
X3.5827Y-3.5866
X3.5827Y-3.9803
X3.7008Y-1.1811
X3.7008Y-1.5748
X3.7008Y-1.9685
X3.7008Y-2.3622
X3.7008Y-2.7559
X3.7008Y-3.1496
X3.7008Y-3.5433
X3.7008Y-3.937
X3.7047Y-1.2402
X3.7047Y-1.6339
X3.7047Y-2.0276
X3.7047Y-2.4213
X3.7047Y-2.815
X3.7047Y-3.2087
X3.7047Y-3.6024
X3.7047Y-3.9961
X3.7657Y-1.124
X3.7657Y-1.5177
X3.7657Y-1.9114
X3.7657Y-2.3051
X3.7657Y-2.6988
X3.7657Y-3.0925
X3.7657Y-3.4862
X3.7657Y-3.8799
X3.7953Y-1.2323
X3.7953Y-1.626
X3.7953Y-2.0197
X3.7953Y-2.4134
X3.7953Y-2.8071
X3.7953Y-3.2008
X3.7953Y-3.5945
X3.7953Y-3.9882
X3.9055Y-1.1378
X3.9055Y-1.2244
X3.9055Y-1.5315
X3.9055Y-1.6181
X3.9055Y-1.9252
X3.9055Y-2.0118
X3.9055Y-2.3189
X3.9055Y-2.4055
X3.9055Y-2.7126
X3.9055Y-2.7992
X3.9055Y-3.1063
X3.9055Y-3.1929
X3.9055Y-3.5
X3.9055Y-3.5866
X3.9055Y-3.8937
X3.9055Y-3.9803
X3.9646Y-1.2283
X3.9646Y-1.622
X3.9646Y-2.0157
X3.9646Y-2.4094
X3.9646Y-2.8031
X3.9646Y-3.1969
X3.9646Y-3.5906
X3.9646Y-3.9843
X3.9685Y-1.1339
X3.9685Y-1.5276
X3.9685Y-1.9213
X3.9685Y-2.315
X3.9685Y-2.7087
X3.9685Y-3.1024
X3.9685Y-3.4961
X3.9685Y-3.8898
X4.0551Y-1.2244
X4.0551Y-1.6181
X4.0551Y-2.0118
X4.0551Y-2.4055
X4.0551Y-2.7992
X4.0551Y-3.1929
X4.0551Y-3.5866
X4.0551Y-3.9803
X4.1732Y-1.1811
X4.1732Y-1.5748
X4.1732Y-1.9685
X4.1732Y-2.3622
X4.1732Y-2.7559
X4.1732Y-3.1496
X4.1732Y-3.5433
X4.1732Y-3.937
X4.1772Y-1.2402
X4.1772Y-1.6339
X4.1772Y-2.0276
X4.1772Y-2.4213
X4.1772Y-2.815
X4.1772Y-3.2087
X4.1772Y-3.6024
X4.1772Y-3.9961
X4.2382Y-1.124
X4.2382Y-1.5177
X4.2382Y-1.9114
X4.2382Y-2.3051
X4.2382Y-2.6988
X4.2382Y-3.0925
X4.2382Y-3.4862
X4.2382Y-3.8799
X4.2677Y-1.2323
X4.2677Y-1.626
X4.2677Y-2.0197
X4.2677Y-2.4134
X4.2677Y-2.8071
X4.2677Y-3.2008
X4.2677Y-3.5945
X4.2677Y-3.9882
X4.378Y-1.1378
X4.378Y-1.2244
X4.378Y-1.5315
X4.378Y-1.6181
X4.378Y-1.9252
X4.378Y-2.0118
X4.378Y-2.3189
X4.378Y-2.4055
X4.378Y-2.7126
X4.378Y-2.7992
X4.378Y-3.1063
X4.378Y-3.1929
X4.378Y-3.5
X4.378Y-3.5866
X4.378Y-3.8937
X4.378Y-3.9803
X4.437Y-1.2283
X4.437Y-1.622
X4.437Y-2.0157
X4.437Y-2.4094
X4.437Y-2.8031
X4.437Y-3.1969
X4.437Y-3.5906
X4.437Y-3.9843
X4.4409Y-1.1339
X4.4409Y-1.5276
X4.4409Y-1.9213
X4.4409Y-2.315
X4.4409Y-2.7087
X4.4409Y-3.1024
X4.4409Y-3.4961
X4.4409Y-3.8898
X4.5276Y-1.2244
X4.5276Y-1.6181
X4.5276Y-2.0118
X4.5276Y-2.4055
X4.5276Y-2.7992
X4.5276Y-3.1929
X4.5276Y-3.5866
X4.5276Y-3.9803
X4.6457Y-1.1811
X4.6457Y-1.5748
X4.6457Y-1.9685
X4.6457Y-2.3622
X4.6457Y-2.7559
X4.6457Y-3.1496
X4.6457Y-3.5433
X4.6457Y-3.937
X4.6496Y-1.2402
X4.6496Y-1.6339
X4.6496Y-2.0276
X4.6496Y-2.4213
X4.6496Y-2.815
X4.6496Y-3.2087
X4.6496Y-3.6024
X4.6496Y-3.9961
X4.7106Y-1.124
X4.7106Y-1.5177
X4.7106Y-1.9114
X4.7106Y-2.3051
X4.7106Y-2.6988
X4.7106Y-3.0925
X4.7106Y-3.4862
X4.7106Y-3.8799
X4.7402Y-1.2323
X4.7402Y-1.626
X4.7402Y-2.0197
X4.7402Y-2.4134
X4.7402Y-2.8071
X4.7402Y-3.2008
X4.7402Y-3.5945
X4.7402Y-3.9882
X4.8504Y-1.1378
X4.8504Y-1.2244
X4.8504Y-1.5315
X4.8504Y-1.6181
X4.8504Y-1.9252
X4.8504Y-2.0118
X4.8504Y-2.3189
X4.8504Y-2.4055
X4.8504Y-2.7126
X4.8504Y-2.7992
X4.8504Y-3.1063
X4.8504Y-3.1929
X4.8504Y-3.5
X4.8504Y-3.5866
X4.8504Y-3.8937
X4.8504Y-3.9803
X4.9094Y-1.2283
X4.9094Y-1.622
X4.9094Y-2.0157
X4.9094Y-2.4094
X4.9094Y-2.8031
X4.9094Y-3.1969
X4.9094Y-3.5906
X4.9094Y-3.9843
X4.9134Y-1.1339
X4.9134Y-1.5276
X4.9134Y-1.9213
X4.9134Y-2.315
X4.9134Y-2.7087
X4.9134Y-3.1024
X4.9134Y-3.4961
X4.9134Y-3.8898
X5.0Y-1.2244
X5.0Y-1.6181
X5.0Y-2.0118
X5.0Y-2.4055
X5.0Y-2.7992
X5.0Y-3.1929
X5.0Y-3.5866
X5.0Y-3.9803
X5.1181Y-1.1811
X5.1181Y-1.5748
X5.1181Y-1.9685
X5.1181Y-2.3622
X5.1181Y-2.7559
X5.1181Y-3.1496
X5.1181Y-3.5433
X5.1181Y-3.937
X5.122Y-1.2402
X5.122Y-1.6339
X5.122Y-2.0276
X5.122Y-2.4213
X5.122Y-2.815
X5.122Y-3.2087
X5.122Y-3.6024
X5.122Y-3.9961
X5.1831Y-1.124
X5.1831Y-1.5177
X5.1831Y-1.9114
X5.1831Y-2.3051
X5.1831Y-2.6988
X5.1831Y-3.0925
X5.1831Y-3.4862
X5.1831Y-3.8799
X5.2126Y-1.2323
X5.2126Y-1.626
X5.2126Y-2.0197
X5.2126Y-2.4134
X5.2126Y-2.8071
X5.2126Y-3.2008
X5.2126Y-3.5945
X5.2126Y-3.9882
X5.3228Y-1.1378
X5.3228Y-1.2244
X5.3228Y-1.5315
X5.3228Y-1.6181
X5.3228Y-1.9252
X5.3228Y-2.0118
X5.3228Y-2.3189
X5.3228Y-2.4055
X5.3228Y-2.7126
X5.3228Y-2.7992
X5.3228Y-3.1063
X5.3228Y-3.1929
X5.3228Y-3.5
X5.3228Y-3.5866
X5.3228Y-3.8937
X5.3228Y-3.9803
X5.3819Y-1.2283
X5.3819Y-1.622
X5.3819Y-2.0157
X5.3819Y-2.4094
X5.3819Y-2.8031
X5.3819Y-3.1969
X5.3819Y-3.5906
X5.3819Y-3.9843
X5.3858Y-1.1339
X5.3858Y-1.5276
X5.3858Y-1.9213
X5.3858Y-2.315
X5.3858Y-2.7087
X5.3858Y-3.1024
X5.3858Y-3.4961
X5.3858Y-3.8898
X5.4724Y-1.2244
X5.4724Y-1.6181
X5.4724Y-2.0118
X5.4724Y-2.4055
X5.4724Y-2.7992
X5.4724Y-3.1929
X5.4724Y-3.5866
X5.4724Y-3.9803
X5.5906Y-1.1811
X5.5906Y-1.5748
X5.5906Y-1.9685
X5.5906Y-2.3622
X5.5906Y-2.7559
X5.5906Y-3.1496
X5.5906Y-3.5433
X5.5906Y-3.937
X5.5945Y-1.2402
X5.5945Y-1.6339
X5.5945Y-2.0276
X5.5945Y-2.4213
X5.5945Y-2.815
X5.5945Y-3.2087
X5.5945Y-3.6024
X5.5945Y-3.9961
X5.6555Y-1.124
X5.6555Y-1.5177
X5.6555Y-1.9114
X5.6555Y-2.3051
X5.6555Y-2.6988
X5.6555Y-3.0925
X5.6555Y-3.4862
X5.6555Y-3.8799
X5.685Y-1.2323
X5.685Y-1.626
X5.685Y-2.0197
X5.685Y-2.4134
X5.685Y-2.8071
X5.685Y-3.2008
X5.685Y-3.5945
X5.685Y-3.9882
X5.7953Y-1.1378
X5.7953Y-1.2244
X5.7953Y-1.5315
X5.7953Y-1.6181
X5.7953Y-1.9252
X5.7953Y-2.0118
X5.7953Y-2.3189
X5.7953Y-2.4055
X5.7953Y-2.7126
X5.7953Y-2.7992
X5.7953Y-3.1063
X5.7953Y-3.1929
X5.7953Y-3.5
X5.7953Y-3.5866
X5.7953Y-3.8937
X5.7953Y-3.9803
X5.8543Y-1.2283
X5.8543Y-1.622
X5.8543Y-2.0157
X5.8543Y-2.4094
X5.8543Y-2.8031
X5.8543Y-3.1969
X5.8543Y-3.5906
X5.8543Y-3.9843
X5.8583Y-1.1339
X5.8583Y-1.5276
X5.8583Y-1.9213
X5.8583Y-2.315
X5.8583Y-2.7087
X5.8583Y-3.1024
X5.8583Y-3.4961
X5.8583Y-3.8898
X5.9449Y-1.2244
X5.9449Y-1.6181
X5.9449Y-2.0118
X5.9449Y-2.4055
X5.9449Y-2.7992
X5.9449Y-3.1929
X5.9449Y-3.5866
X5.9449Y-3.9803
X6.063Y-1.1811
X6.063Y-1.5748
X6.063Y-1.9685
X6.063Y-2.3622
X6.063Y-2.7559
X6.063Y-3.1496
X6.063Y-3.5433
X6.063Y-3.937
X6.0669Y-1.2402
X6.0669Y-1.6339
X6.0669Y-2.0276
X6.0669Y-2.4213
X6.0669Y-2.815
X6.0669Y-3.2087
X6.0669Y-3.6024
X6.0669Y-3.9961
X6.128Y-1.124
X6.128Y-1.5177
X6.128Y-1.9114
X6.128Y-2.3051
X6.128Y-2.6988
X6.128Y-3.0925
X6.128Y-3.4862
X6.128Y-3.8799
X6.1575Y-1.2323
X6.1575Y-1.626
X6.1575Y-2.0197
X6.1575Y-2.4134
X6.1575Y-2.8071
X6.1575Y-3.2008
X6.1575Y-3.5945
X6.1575Y-3.9882
X6.2677Y-1.1378
X6.2677Y-1.2244
X6.2677Y-1.5315
X6.2677Y-1.6181
X6.2677Y-1.9252
X6.2677Y-2.0118
X6.2677Y-2.3189
X6.2677Y-2.4055
X6.2677Y-2.7126
X6.2677Y-2.7992
X6.2677Y-3.1063
X6.2677Y-3.1929
X6.2677Y-3.5
X6.2677Y-3.5866
X6.2677Y-3.8937
X6.2677Y-3.9803
T2
X2.5787Y-1.0805
X2.5787Y-1.1805
X2.5787Y-1.2805
X2.5787Y-1.4742
X2.5787Y-1.5742
X2.5787Y-1.6742
X2.5787Y-1.8679
X2.5787Y-1.9679
X2.5787Y-2.0679
X2.5787Y-2.2616
X2.5787Y-2.3616
X2.5787Y-2.4616
X2.5787Y-2.6553
X2.5787Y-2.7553
X2.5787Y-2.8553
X2.5787Y-3.049
X2.5787Y-3.149
X2.5787Y-3.249
X2.5787Y-3.4427
X2.5787Y-3.5427
X2.5787Y-3.6427
X2.5787Y-3.8364
X2.5787Y-3.9364
X2.5787Y-4.0364
X2.9331Y-1.0805
X2.9331Y-1.1805
X2.9331Y-1.2805
X2.9331Y-1.4742
X2.9331Y-1.5742
X2.9331Y-1.6742
X2.9331Y-1.8679
X2.9331Y-1.9679
X2.9331Y-2.0679
X2.9331Y-2.2616
X2.9331Y-2.3616
X2.9331Y-2.4616
X2.9331Y-2.6553
X2.9331Y-2.7553
X2.9331Y-2.8553
X2.9331Y-3.049
X2.9331Y-3.149
X2.9331Y-3.249
X2.9331Y-3.4427
X2.9331Y-3.5427
X2.9331Y-3.6427
X2.9331Y-3.8364
X2.9331Y-3.9364
X2.9331Y-4.0364
X3.0512Y-1.0805
X3.0512Y-1.1805
X3.0512Y-1.2805
X3.0512Y-1.4742
X3.0512Y-1.5742
X3.0512Y-1.6742
X3.0512Y-1.8679
X3.0512Y-1.9679
X3.0512Y-2.0679
X3.0512Y-2.2616
X3.0512Y-2.3616
X3.0512Y-2.4616
X3.0512Y-2.6553
X3.0512Y-2.7553
X3.0512Y-2.8553
X3.0512Y-3.049
X3.0512Y-3.149
X3.0512Y-3.249
X3.0512Y-3.4427
X3.0512Y-3.5427
X3.0512Y-3.6427
X3.0512Y-3.8364
X3.0512Y-3.9364
X3.0512Y-4.0364
X3.4055Y-1.0805
X3.4055Y-1.1805
X3.4055Y-1.2805
X3.4055Y-1.4742
X3.4055Y-1.5742
X3.4055Y-1.6742
X3.4055Y-1.8679
X3.4055Y-1.9679
X3.4055Y-2.0679
X3.4055Y-2.2616
X3.4055Y-2.3616
X3.4055Y-2.4616
X3.4055Y-2.6553
X3.4055Y-2.7553
X3.4055Y-2.8553
X3.4055Y-3.049
X3.4055Y-3.149
X3.4055Y-3.249
X3.4055Y-3.4427
X3.4055Y-3.5427
X3.4055Y-3.6427
X3.4055Y-3.8364
X3.4055Y-3.9364
X3.4055Y-4.0364
X3.5236Y-1.0805
X3.5236Y-1.1805
X3.5236Y-1.2805
X3.5236Y-1.4742
X3.5236Y-1.5742
X3.5236Y-1.6742
X3.5236Y-1.8679
X3.5236Y-1.9679
X3.5236Y-2.0679
X3.5236Y-2.2616
X3.5236Y-2.3616
X3.5236Y-2.4616
X3.5236Y-2.6553
X3.5236Y-2.7553
X3.5236Y-2.8553
X3.5236Y-3.049
X3.5236Y-3.149
X3.5236Y-3.249
X3.5236Y-3.4427
X3.5236Y-3.5427
X3.5236Y-3.6427
X3.5236Y-3.8364
X3.5236Y-3.9364
X3.5236Y-4.0364
X3.878Y-1.0805
X3.878Y-1.1805
X3.878Y-1.2805
X3.878Y-1.4742
X3.878Y-1.5742
X3.878Y-1.6742
X3.878Y-1.8679
X3.878Y-1.9679
X3.878Y-2.0679
X3.878Y-2.2616
X3.878Y-2.3616
X3.878Y-2.4616
X3.878Y-2.6553
X3.878Y-2.7553
X3.878Y-2.8553
X3.878Y-3.049
X3.878Y-3.149
X3.878Y-3.249
X3.878Y-3.4427
X3.878Y-3.5427
X3.878Y-3.6427
X3.878Y-3.8364
X3.878Y-3.9364
X3.878Y-4.0364
X3.9961Y-1.0805
X3.9961Y-1.1805
X3.9961Y-1.2805
X3.9961Y-1.4742
X3.9961Y-1.5742
X3.9961Y-1.6742
X3.9961Y-1.8679
X3.9961Y-1.9679
X3.9961Y-2.0679
X3.9961Y-2.2616
X3.9961Y-2.3616
X3.9961Y-2.4616
X3.9961Y-2.6553
X3.9961Y-2.7553
X3.9961Y-2.8553
X3.9961Y-3.049
X3.9961Y-3.149
X3.9961Y-3.249
X3.9961Y-3.4427
X3.9961Y-3.5427
X3.9961Y-3.6427
X3.9961Y-3.8364
X3.9961Y-3.9364
X3.9961Y-4.0364
X4.3504Y-1.0805
X4.3504Y-1.1805
X4.3504Y-1.2805
X4.3504Y-1.4742
X4.3504Y-1.5742
X4.3504Y-1.6742
X4.3504Y-1.8679
X4.3504Y-1.9679
X4.3504Y-2.0679
X4.3504Y-2.2616
X4.3504Y-2.3616
X4.3504Y-2.4616
X4.3504Y-2.6553
X4.3504Y-2.7553
X4.3504Y-2.8553
X4.3504Y-3.049
X4.3504Y-3.149
X4.3504Y-3.249
X4.3504Y-3.4427
X4.3504Y-3.5427
X4.3504Y-3.6427
X4.3504Y-3.8364
X4.3504Y-3.9364
X4.3504Y-4.0364
X4.4685Y-1.0805
X4.4685Y-1.1805
X4.4685Y-1.2805
X4.4685Y-1.4742
X4.4685Y-1.5742
X4.4685Y-1.6742
X4.4685Y-1.8679
X4.4685Y-1.9679
X4.4685Y-2.0679
X4.4685Y-2.2616
X4.4685Y-2.3616
X4.4685Y-2.4616
X4.4685Y-2.6553
X4.4685Y-2.7553
X4.4685Y-2.8553
X4.4685Y-3.049
X4.4685Y-3.149
X4.4685Y-3.249
X4.4685Y-3.4427
X4.4685Y-3.5427
X4.4685Y-3.6427
X4.4685Y-3.8364
X4.4685Y-3.9364
X4.4685Y-4.0364
X4.8228Y-1.0805
X4.8228Y-1.1805
X4.8228Y-1.2805
X4.8228Y-1.4742
X4.8228Y-1.5742
X4.8228Y-1.6742
X4.8228Y-1.8679
X4.8228Y-1.9679
X4.8228Y-2.0679
X4.8228Y-2.2616
X4.8228Y-2.3616
X4.8228Y-2.4616
X4.8228Y-2.6553
X4.8228Y-2.7553
X4.8228Y-2.8553
X4.8228Y-3.049
X4.8228Y-3.149
X4.8228Y-3.249
X4.8228Y-3.4427
X4.8228Y-3.5427
X4.8228Y-3.6427
X4.8228Y-3.8364
X4.8228Y-3.9364
X4.8228Y-4.0364
X4.9409Y-1.0805
X4.9409Y-1.1805
X4.9409Y-1.2805
X4.9409Y-1.4742
X4.9409Y-1.5742
X4.9409Y-1.6742
X4.9409Y-1.8679
X4.9409Y-1.9679
X4.9409Y-2.0679
X4.9409Y-2.2616
X4.9409Y-2.3616
X4.9409Y-2.4616
X4.9409Y-2.6553
X4.9409Y-2.7553
X4.9409Y-2.8553
X4.9409Y-3.049
X4.9409Y-3.149
X4.9409Y-3.249
X4.9409Y-3.4427
X4.9409Y-3.5427
X4.9409Y-3.6427
X4.9409Y-3.8364
X4.9409Y-3.9364
X4.9409Y-4.0364
X5.2953Y-1.0805
X5.2953Y-1.1805
X5.2953Y-1.2805
X5.2953Y-1.4742
X5.2953Y-1.5742
X5.2953Y-1.6742
X5.2953Y-1.8679
X5.2953Y-1.9679
X5.2953Y-2.0679
X5.2953Y-2.2616
X5.2953Y-2.3616
X5.2953Y-2.4616
X5.2953Y-2.6553
X5.2953Y-2.7553
X5.2953Y-2.8553
X5.2953Y-3.049
X5.2953Y-3.149
X5.2953Y-3.249
X5.2953Y-3.4427
X5.2953Y-3.5427
X5.2953Y-3.6427
X5.2953Y-3.8364
X5.2953Y-3.9364
X5.2953Y-4.0364
X5.4134Y-1.0805
X5.4134Y-1.1805
X5.4134Y-1.2805
X5.4134Y-1.4742
X5.4134Y-1.5742
X5.4134Y-1.6742
X5.4134Y-1.8679
X5.4134Y-1.9679
X5.4134Y-2.0679
X5.4134Y-2.2616
X5.4134Y-2.3616
X5.4134Y-2.4616
X5.4134Y-2.6553
X5.4134Y-2.7553
X5.4134Y-2.8553
X5.4134Y-3.049
X5.4134Y-3.149
X5.4134Y-3.249
X5.4134Y-3.4427
X5.4134Y-3.5427
X5.4134Y-3.6427
X5.4134Y-3.8364
X5.4134Y-3.9364
X5.4134Y-4.0364
X5.7677Y-1.0805
X5.7677Y-1.1805
X5.7677Y-1.2805
X5.7677Y-1.4742
X5.7677Y-1.5742
X5.7677Y-1.6742
X5.7677Y-1.8679
X5.7677Y-1.9679
X5.7677Y-2.0679
X5.7677Y-2.2616
X5.7677Y-2.3616
X5.7677Y-2.4616
X5.7677Y-2.6553
X5.7677Y-2.7553
X5.7677Y-2.8553
X5.7677Y-3.049
X5.7677Y-3.149
X5.7677Y-3.249
X5.7677Y-3.4427
X5.7677Y-3.5427
X5.7677Y-3.6427
X5.7677Y-3.8364
X5.7677Y-3.9364
X5.7677Y-4.0364
X5.8858Y-1.0805
X5.8858Y-1.1805
X5.8858Y-1.2805
X5.8858Y-1.4742
X5.8858Y-1.5742
X5.8858Y-1.6742
X5.8858Y-1.8679
X5.8858Y-1.9679
X5.8858Y-2.0679
X5.8858Y-2.2616
X5.8858Y-2.3616
X5.8858Y-2.4616
X5.8858Y-2.6553
X5.8858Y-2.7553
X5.8858Y-2.8553
X5.8858Y-3.049
X5.8858Y-3.149
X5.8858Y-3.249
X5.8858Y-3.4427
X5.8858Y-3.5427
X5.8858Y-3.6427
X5.8858Y-3.8364
X5.8858Y-3.9364
X5.8858Y-4.0364
X6.2402Y-1.0805
X6.2402Y-1.1805
X6.2402Y-1.2805
X6.2402Y-1.4742
X6.2402Y-1.5742
X6.2402Y-1.6742
X6.2402Y-1.8679
X6.2402Y-1.9679
X6.2402Y-2.0679
X6.2402Y-2.2616
X6.2402Y-2.3616
X6.2402Y-2.4616
X6.2402Y-2.6553
X6.2402Y-2.7553
X6.2402Y-2.8553
X6.2402Y-3.049
X6.2402Y-3.149
X6.2402Y-3.249
X6.2402Y-3.4427
X6.2402Y-3.5427
X6.2402Y-3.6427
X6.2402Y-3.8364
X6.2402Y-3.9364
X6.2402Y-4.0364
M30
